<svg xmlns="http://www.w3.org/2000/svg" xmlns:xlink="http://www.w3.org/1999/xlink" width="500" zoomAndPan="magnify" viewBox="0 0 375 83.249999" height="111" preserveAspectRatio="xMidYMid meet" version="1.0"><defs><g/><clipPath id="b1bd8e2bdd"><path d="M 1.675781 9 L 373.324219 9 L 373.324219 73 L 1.675781 73 Z M 1.675781 9 " clip-rule="nonzero"/></clipPath><clipPath id="509ef2c303"><path d="M 336 16 L 372.324219 16 L 372.324219 63 L 336 63 Z M 336 16 " clip-rule="nonzero"/></clipPath><clipPath id="1848172230"><rect x="0" width="373" y="0" height="64"/></clipPath></defs><g clip-path="url(#b1bd8e2bdd)"><g transform="matrix(1, 0, 0, 1, 1, 9)"><g clip-path="url(#1848172230)"><g fill="#000000" fill-opacity="1"><g transform="translate(0.67411, 51.063885)"><g><path d="M 26.953125 0.984375 C 24.234375 0.984375 21.632812 0.582031 19.15625 -0.21875 C 16.6875 -1.019531 14.421875 -2.148438 12.359375 -3.609375 C 10.304688 -5.066406 8.519531 -6.796875 7 -8.796875 C 5.476562 -10.804688 4.300781 -13.015625 3.46875 -15.421875 C 2.632812 -17.828125 2.21875 -20.351562 2.21875 -23 C 2.21875 -25.675781 2.632812 -28.210938 3.46875 -30.609375 C 4.300781 -33.003906 5.476562 -35.195312 7 -37.1875 C 8.519531 -39.175781 10.304688 -40.898438 12.359375 -42.359375 C 14.421875 -43.828125 16.6875 -44.957031 19.15625 -45.75 C 21.632812 -46.550781 24.234375 -46.953125 26.953125 -46.953125 C 29.671875 -46.953125 32.265625 -46.550781 34.734375 -45.75 C 37.210938 -44.957031 39.484375 -43.828125 41.546875 -42.359375 C 43.617188 -40.898438 45.414062 -39.175781 46.9375 -37.1875 C 48.457031 -35.195312 49.628906 -33.003906 50.453125 -30.609375 C 51.285156 -28.210938 51.703125 -25.675781 51.703125 -23 C 51.703125 -20.351562 51.285156 -17.828125 50.453125 -15.421875 C 49.628906 -13.015625 48.457031 -10.804688 46.9375 -8.796875 C 45.414062 -6.796875 43.617188 -5.066406 41.546875 -3.609375 C 39.484375 -2.148438 37.21875 -1.019531 34.75 -0.21875 C 32.289062 0.582031 29.691406 0.984375 26.953125 0.984375 Z M 26.953125 -6.75 C 29.222656 -6.75 31.347656 -7.148438 33.328125 -7.953125 C 35.304688 -8.765625 37.046875 -9.898438 38.546875 -11.359375 C 40.054688 -12.828125 41.234375 -14.550781 42.078125 -16.53125 C 42.921875 -18.507812 43.34375 -20.65625 43.34375 -22.96875 C 43.34375 -25.3125 42.921875 -27.476562 42.078125 -29.46875 C 41.234375 -31.457031 40.054688 -33.179688 38.546875 -34.640625 C 37.046875 -36.097656 35.304688 -37.234375 33.328125 -38.046875 C 31.347656 -38.859375 29.222656 -39.265625 26.953125 -39.265625 C 24.703125 -39.265625 22.585938 -38.859375 20.609375 -38.046875 C 18.628906 -37.234375 16.890625 -36.09375 15.390625 -34.625 C 13.898438 -33.15625 12.734375 -31.429688 11.890625 -29.453125 C 11.046875 -27.472656 10.625 -25.3125 10.625 -22.96875 C 10.625 -20.65625 11.046875 -18.507812 11.890625 -16.53125 C 12.734375 -14.550781 13.898438 -12.828125 15.390625 -11.359375 C 16.890625 -9.898438 18.628906 -8.765625 20.609375 -7.953125 C 22.585938 -7.148438 24.703125 -6.75 26.953125 -6.75 Z M 26.953125 -6.75 "/></g></g><g transform="translate(54.604908, 51.063885)"><g><path d="M 12.953125 11.84375 L 4.796875 11.84375 L 4.796875 -34.671875 L 12.546875 -34.671875 L 12.546875 -28.84375 C 13.804688 -30.925781 15.476562 -32.585938 17.5625 -33.828125 C 19.65625 -35.066406 21.953125 -35.6875 24.453125 -35.6875 C 26.929688 -35.6875 29.195312 -35.207031 31.25 -34.25 C 33.3125 -33.289062 35.09375 -31.972656 36.59375 -30.296875 C 38.101562 -28.628906 39.273438 -26.6875 40.109375 -24.46875 C 40.941406 -22.25 41.359375 -19.875 41.359375 -17.34375 C 41.359375 -14.800781 40.941406 -12.414062 40.109375 -10.1875 C 39.273438 -7.957031 38.097656 -6 36.578125 -4.3125 C 35.054688 -2.625 33.28125 -1.304688 31.25 -0.359375 C 29.21875 0.578125 26.988281 1.046875 24.5625 1.046875 C 22.875 1.046875 21.273438 0.769531 19.765625 0.21875 C 18.253906 -0.332031 16.90625 -1.109375 15.71875 -2.109375 C 14.53125 -3.109375 13.550781 -4.269531 12.78125 -5.59375 L 12.953125 -1.578125 Z M 23.078125 -6.46875 C 24.921875 -6.46875 26.609375 -6.90625 28.140625 -7.78125 C 29.679688 -8.664062 30.914062 -9.921875 31.84375 -11.546875 C 32.78125 -13.179688 33.25 -15.113281 33.25 -17.34375 C 33.25 -19.519531 32.785156 -21.414062 31.859375 -23.03125 C 30.941406 -24.65625 29.710938 -25.914062 28.171875 -26.8125 C 26.640625 -27.71875 24.925781 -28.171875 23.03125 -28.171875 C 21.613281 -28.171875 20.289062 -27.894531 19.0625 -27.34375 C 17.84375 -26.789062 16.765625 -26.019531 15.828125 -25.03125 C 14.898438 -24.039062 14.171875 -22.890625 13.640625 -21.578125 C 13.109375 -20.273438 12.84375 -18.863281 12.84375 -17.34375 C 12.84375 -15.757812 13.113281 -14.304688 13.65625 -12.984375 C 14.195312 -11.660156 14.9375 -10.507812 15.875 -9.53125 C 16.820312 -8.550781 17.914062 -7.796875 19.15625 -7.265625 C 20.394531 -6.734375 21.703125 -6.46875 23.078125 -6.46875 Z M 23.078125 -6.46875 "/></g></g><g transform="translate(98.282445, 51.063885)"><g><path d="M 37.78125 -17.9375 C 37.78125 -17.507812 37.765625 -17.101562 37.734375 -16.71875 C 37.710938 -16.34375 37.671875 -15.828125 37.609375 -15.171875 L 10.53125 -15.171875 C 10.820312 -13.285156 11.421875 -11.675781 12.328125 -10.34375 C 13.234375 -9.019531 14.359375 -8.003906 15.703125 -7.296875 C 17.054688 -6.585938 18.535156 -6.234375 20.140625 -6.234375 C 22.203125 -6.234375 23.875 -6.644531 25.15625 -7.46875 C 26.4375 -8.289062 27.375 -9.429688 27.96875 -10.890625 L 36.859375 -10.890625 C 36.429688 -9.335938 35.726562 -7.84375 34.75 -6.40625 C 33.78125 -4.96875 32.585938 -3.691406 31.171875 -2.578125 C 29.753906 -1.460938 28.128906 -0.582031 26.296875 0.0625 C 24.460938 0.71875 22.46875 1.046875 20.3125 1.046875 C 17.695312 1.046875 15.289062 0.566406 13.09375 -0.390625 C 10.90625 -1.347656 9.003906 -2.664062 7.390625 -4.34375 C 5.785156 -6.03125 4.539062 -7.988281 3.65625 -10.21875 C 2.769531 -12.445312 2.328125 -14.820312 2.328125 -17.34375 C 2.328125 -19.875 2.769531 -22.25 3.65625 -24.46875 C 4.539062 -26.6875 5.785156 -28.640625 7.390625 -30.328125 C 9.003906 -32.015625 10.90625 -33.332031 13.09375 -34.28125 C 15.289062 -35.238281 17.695312 -35.71875 20.3125 -35.71875 C 22.914062 -35.71875 25.289062 -35.242188 27.4375 -34.296875 C 29.582031 -33.359375 31.425781 -32.0625 32.96875 -30.40625 C 34.507812 -28.75 35.695312 -26.851562 36.53125 -24.71875 C 37.363281 -22.582031 37.78125 -20.320312 37.78125 -17.9375 Z M 10.859375 -21.484375 L 29.453125 -21.484375 C 29.335938 -22.785156 28.851562 -23.96875 28 -25.03125 C 27.144531 -26.101562 26.039062 -26.96875 24.6875 -27.625 C 23.34375 -28.28125 21.867188 -28.609375 20.265625 -28.609375 C 18.898438 -28.609375 17.585938 -28.351562 16.328125 -27.84375 C 15.066406 -27.332031 13.957031 -26.554688 13 -25.515625 C 12.039062 -24.472656 11.328125 -23.128906 10.859375 -21.484375 Z M 10.859375 -21.484375 "/></g></g><g transform="translate(137.912644, 51.063885)"><g><path d="M 12.953125 0 L 4.796875 0 L 4.796875 -34.671875 L 12.546875 -34.671875 L 12.546875 -29.28125 C 13.222656 -30.539062 14.144531 -31.648438 15.3125 -32.609375 C 16.476562 -33.578125 17.835938 -34.335938 19.390625 -34.890625 C 20.941406 -35.441406 22.609375 -35.71875 24.390625 -35.71875 C 29.046875 -35.71875 32.53125 -34.238281 34.84375 -31.28125 C 37.15625 -28.320312 38.3125 -24.125 38.3125 -18.6875 L 38.3125 0 L 30.15625 0 L 30.15625 -18.515625 C 30.15625 -21.953125 29.4375 -24.425781 28 -25.9375 C 26.5625 -27.445312 24.601562 -28.203125 22.125 -28.203125 C 20.53125 -28.203125 19.035156 -27.796875 17.640625 -26.984375 C 16.242188 -26.171875 15.113281 -24.988281 14.25 -23.4375 C 13.382812 -21.882812 12.953125 -19.972656 12.953125 -17.703125 Z M 12.953125 0 "/></g></g><g transform="translate(180.746986, 51.063885)"><g><path d="M 13.859375 0 L 5.46875 0 L 5.46875 -45.875 L 24.796875 -45.875 C 27.109375 -45.875 29.234375 -45.488281 31.171875 -44.71875 C 33.117188 -43.957031 34.800781 -42.882812 36.21875 -41.5 C 37.632812 -40.125 38.738281 -38.488281 39.53125 -36.59375 C 40.320312 -34.707031 40.71875 -32.648438 40.71875 -30.421875 C 40.71875 -28.054688 40.328125 -25.90625 39.546875 -23.96875 C 38.773438 -22.039062 37.6875 -20.378906 36.28125 -18.984375 C 34.875 -17.597656 33.203125 -16.523438 31.265625 -15.765625 C 29.328125 -15.015625 27.210938 -14.640625 24.921875 -14.640625 L 13.859375 -14.640625 Z M 13.859375 -38.390625 L 13.859375 -22.125 L 24.515625 -22.125 C 25.984375 -22.125 27.304688 -22.488281 28.484375 -23.21875 C 29.660156 -23.945312 30.59375 -24.9375 31.28125 -26.1875 C 31.96875 -27.4375 32.3125 -28.847656 32.3125 -30.421875 C 32.3125 -31.816406 31.960938 -33.117188 31.265625 -34.328125 C 30.566406 -35.546875 29.628906 -36.523438 28.453125 -37.265625 C 27.273438 -38.015625 25.941406 -38.390625 24.453125 -38.390625 Z M 13.859375 -38.390625 "/></g></g></g><g fill="#000000" fill-opacity="1"><g transform="translate(221.018014, 51.063885)"><g><path d="M 20.546875 1.046875 C 17.910156 1.046875 15.476562 0.578125 13.25 -0.359375 C 11.03125 -1.304688 9.101562 -2.625 7.46875 -4.3125 C 5.84375 -6 4.578125 -7.957031 3.671875 -10.1875 C 2.773438 -12.414062 2.328125 -14.800781 2.328125 -17.34375 C 2.328125 -19.875 2.773438 -22.25 3.671875 -24.46875 C 4.578125 -26.6875 5.84375 -28.640625 7.46875 -30.328125 C 9.101562 -32.015625 11.03125 -33.332031 13.25 -34.28125 C 15.476562 -35.238281 17.921875 -35.71875 20.578125 -35.71875 C 23.253906 -35.71875 25.703125 -35.238281 27.921875 -34.28125 C 30.148438 -33.332031 32.082031 -32.015625 33.71875 -30.328125 C 35.363281 -28.640625 36.632812 -26.6875 37.53125 -24.46875 C 38.4375 -22.25 38.890625 -19.875 38.890625 -17.34375 C 38.890625 -14.769531 38.4375 -12.375 37.53125 -10.15625 C 36.632812 -7.945312 35.363281 -6 33.71875 -4.3125 C 32.082031 -2.625 30.144531 -1.304688 27.90625 -0.359375 C 25.675781 0.578125 23.222656 1.046875 20.546875 1.046875 Z M 20.609375 -6.546875 C 22.566406 -6.546875 24.304688 -7.007812 25.828125 -7.9375 C 27.359375 -8.875 28.566406 -10.148438 29.453125 -11.765625 C 30.347656 -13.390625 30.796875 -15.25 30.796875 -17.34375 C 30.796875 -19.425781 30.347656 -21.28125 29.453125 -22.90625 C 28.566406 -24.539062 27.359375 -25.828125 25.828125 -26.765625 C 24.304688 -27.703125 22.566406 -28.171875 20.609375 -28.171875 C 18.671875 -28.171875 16.929688 -27.703125 15.390625 -26.765625 C 13.859375 -25.828125 12.644531 -24.539062 11.75 -22.90625 C 10.863281 -21.28125 10.421875 -19.425781 10.421875 -17.34375 C 10.421875 -15.25 10.863281 -13.390625 11.75 -11.765625 C 12.644531 -10.148438 13.859375 -8.875 15.390625 -7.9375 C 16.929688 -7.007812 18.671875 -6.546875 20.609375 -6.546875 Z M 20.609375 -6.546875 "/></g></g><g transform="translate(262.23342, 51.063885)"><g><path d="M 12.953125 0 L 4.796875 0 L 4.796875 -47.53125 L 12.953125 -47.53125 Z M 12.953125 0 "/></g></g><g transform="translate(279.94053, 51.063885)"><g><path d="M 8.796875 -40.078125 C 7.222656 -40.078125 5.992188 -40.53125 5.109375 -41.4375 C 4.222656 -42.34375 3.78125 -43.453125 3.78125 -44.765625 C 3.78125 -46.015625 4.222656 -47.097656 5.109375 -48.015625 C 5.992188 -48.941406 7.238281 -49.40625 8.84375 -49.40625 C 10.476562 -49.40625 11.738281 -48.941406 12.625 -48.015625 C 13.519531 -47.097656 13.96875 -46.015625 13.96875 -44.765625 C 13.96875 -43.453125 13.519531 -42.34375 12.625 -41.4375 C 11.738281 -40.53125 10.460938 -40.078125 8.796875 -40.078125 Z M 12.953125 0 L 4.796875 0 L 4.796875 -34.671875 L 12.953125 -34.671875 Z M 12.953125 0 "/></g></g><g transform="translate(297.64764, 51.063885)"><g><path d="M 20.234375 1.046875 C 17.648438 1.046875 15.265625 0.566406 13.078125 -0.390625 C 10.898438 -1.347656 9.003906 -2.664062 7.390625 -4.34375 C 5.785156 -6.03125 4.539062 -7.988281 3.65625 -10.21875 C 2.769531 -12.445312 2.328125 -14.820312 2.328125 -17.34375 C 2.328125 -19.851562 2.769531 -22.21875 3.65625 -24.4375 C 4.539062 -26.65625 5.785156 -28.613281 7.390625 -30.3125 C 9.003906 -32.007812 10.898438 -33.332031 13.078125 -34.28125 C 15.265625 -35.238281 17.648438 -35.71875 20.234375 -35.71875 C 23.222656 -35.71875 25.890625 -35.140625 28.234375 -33.984375 C 30.585938 -32.828125 32.554688 -31.242188 34.140625 -29.234375 C 35.734375 -27.234375 36.851562 -24.96875 37.5 -22.4375 L 29.171875 -22.4375 C 28.410156 -24.363281 27.226562 -25.789062 25.625 -26.71875 C 24.03125 -27.65625 22.242188 -28.125 20.265625 -28.125 C 19.003906 -28.125 17.789062 -27.882812 16.625 -27.40625 C 15.457031 -26.925781 14.40625 -26.222656 13.46875 -25.296875 C 12.539062 -24.378906 11.800781 -23.25 11.25 -21.90625 C 10.695312 -20.570312 10.421875 -19.050781 10.421875 -17.34375 C 10.421875 -15.632812 10.695312 -14.109375 11.25 -12.765625 C 11.800781 -11.429688 12.539062 -10.296875 13.46875 -9.359375 C 14.40625 -8.421875 15.460938 -7.710938 16.640625 -7.234375 C 17.828125 -6.753906 19.035156 -6.515625 20.265625 -6.515625 C 22.242188 -6.515625 24.03125 -7 25.625 -7.96875 C 27.226562 -8.945312 28.410156 -10.519531 29.171875 -12.6875 L 37.46875 -12.6875 C 36.882812 -10.007812 35.796875 -7.632812 34.203125 -5.5625 C 32.609375 -3.5 30.625 -1.878906 28.25 -0.703125 C 25.875 0.460938 23.203125 1.046875 20.234375 1.046875 Z M 20.234375 1.046875 "/></g></g></g><g clip-path="url(#509ef2c303)"><g fill="#000000" fill-opacity="1"><g transform="translate(335.726358, 51.063885)"><g><path d="M 7.484375 11.84375 L 1.65625 11.84375 L 1.65625 5.09375 L 7.421875 5.09375 C 8.628906 5.09375 9.617188 4.894531 10.390625 4.5 C 11.171875 4.101562 11.832031 3.5 12.375 2.6875 C 12.914062 1.882812 13.421875 0.84375 13.890625 -0.4375 L 14.296875 -1.625 L 1.015625 -34.671875 L 9.609375 -34.671875 L 17.78125 -13.6875 L 18.65625 -10.125 L 19.5625 -13.65625 L 27.59375 -34.640625 L 36.296875 -34.671875 L 22.765625 -0.78125 C 21.753906 1.8125 20.742188 3.929688 19.734375 5.578125 C 18.722656 7.234375 17.632812 8.515625 16.46875 9.421875 C 15.3125 10.335938 14.007812 10.96875 12.5625 11.3125 C 11.113281 11.664062 9.421875 11.84375 7.484375 11.84375 Z M 7.484375 11.84375 "/></g></g></g></g></g></g></g></svg>